<svg width="46" height="46" viewBox="0 0 46 46" fill="none" xmlns="http://www.w3.org/2000/svg">
<path d="M31.5042 31.5146L44.0952 44.1066" stroke="#E0E1E2" stroke-width="2" stroke-miterlimit="10" stroke-linecap="round" stroke-linejoin="round"/>
<path d="M30.8626 32.1573L18.0325 44.9882C14.8708 37.0484 18.5043 28.9815 18.5043 28.9815L6.63376 15.0269C6.63376 15.0269 2.76569 15.6478 0 13.4527L13.4536 0C13.4536 0 15.6655 2.74893 15.0128 6.70873L28.9339 18.5528C28.9339 18.5528 36.424 14.6856 44.9406 18.0793L30.8626 32.1573Z" fill="#EFCE4A"/>
<path d="M18.5042 28.9811C18.5042 28.9811 18.4725 29.0552 18.4284 29.1619L29.1313 18.459C29.014 18.5137 28.9329 18.5534 28.9329 18.5534L15.0577 6.74805L6.70068 15.1051L18.5042 28.9811Z" fill="#EBBA16"/>
</svg>
