<svg width="822" height="822" viewBox="0 0 822 822" fill="none" xmlns="http://www.w3.org/2000/svg">
<path d="M411 822C637.989 822 822 771.238 822 708.621C822 646.003 637.989 595.241 411 595.241C184.011 595.241 0 646.003 0 708.621C0 771.238 184.011 822 411 822Z" fill="#23A24D"/>
<path d="M590.649 75.4537C490.053 -25.1421 326.943 -25.1421 226.333 75.4537C135.686 166.1 125.496 336.779 202.41 439.345L408.491 736.965L614.572 439.345C691.5 336.779 681.296 166.1 590.649 75.4537ZM411 340.138C364.032 340.138 325.965 302.071 325.965 255.103C325.965 208.136 364.032 170.069 411 170.069C457.967 170.069 496.034 208.136 496.034 255.103C496.034 302.071 457.967 340.138 411 340.138Z" fill="#EBBA16"/>
</svg>
