<svg width="140" height="140" viewBox="0 0 140 140" fill="none" xmlns="http://www.w3.org/2000/svg">
<g clip-path="url(#clip0)">
<path d="M69.9017 0C45.5305 0 25.7031 19.9054 25.7031 44.3727C25.7031 54.2378 32.5935 73.0569 46.1821 100.307C56.1487 120.29 66.2509 137.778 66.3513 137.952C67.0851 139.22 68.4373 140 69.9017 140C71.3651 140 72.7184 139.22 73.4511 137.952C73.5526 137.778 83.6548 120.29 93.6203 100.307C107.209 73.0569 114.099 54.2378 114.099 44.3727C114.1 19.9054 94.2729 0 69.9017 0Z" fill="#FABC2F"/>
<path d="M69.9017 0V140C71.3651 140 72.7184 139.22 73.4511 137.952C73.5526 137.778 83.6548 120.29 93.6203 100.307C107.209 73.0569 114.099 54.2378 114.099 44.3727C114.1 19.9054 94.2729 0 69.9017 0V0Z" fill="url(#paint0_radial)"/>
<path d="M87.7104 29.2588C82.9519 24.4993 76.6255 21.8781 69.8974 21.876C69.8942 21.876 69.8932 21.876 69.89 21.876C63.164 21.876 56.8397 24.495 52.0845 29.2513C47.3271 34.0076 44.7081 40.3341 44.7102 47.0632C44.7113 53.7923 47.3335 60.1177 52.092 64.8772C56.8504 69.6357 63.1779 72.2568 69.906 72.259H69.9124C76.6383 72.259 82.9626 69.64 87.7179 64.8847C92.4753 60.1273 95.0943 53.8019 95.0921 47.0717C95.0911 40.3437 92.4699 34.0172 87.7104 29.2588Z" fill="#EDEDF2"/>
<path d="M87.7104 29.2588C82.953 24.5003 76.6287 21.8792 69.9017 21.876V72.259H69.906H69.9124C76.6394 72.259 82.9626 69.64 87.7179 64.8847C92.4753 60.1273 95.0943 53.8009 95.0932 47.0717C95.0911 40.3437 92.4699 34.0172 87.7104 29.2588Z" fill="url(#paint1_radial)"/>
<path d="M75.7016 47.0677L78.8098 43.9595C80.412 42.3573 80.412 39.7607 78.8098 38.1596C77.2087 36.5575 74.611 36.5575 73.0099 38.1596L69.9017 41.2679L66.7935 38.1596C65.1913 36.5575 62.5947 36.5575 60.9926 38.1596C59.3915 39.7607 59.3915 42.3573 60.9926 43.9595L64.1008 47.0677L60.9926 50.1759C59.3915 51.7781 59.3915 54.3747 60.9926 55.9769C61.7937 56.7769 62.8436 57.1774 63.8925 57.1774C64.9425 57.1774 65.9924 56.7769 66.7935 55.9769L69.9017 52.8687L73.0099 55.9769C73.811 56.7769 74.8599 57.1774 75.9099 57.1774C76.9588 57.1774 78.0087 56.7769 78.8098 55.9769C80.412 54.3747 80.412 51.7781 78.8098 50.1759L75.7016 47.0677Z" fill="#FABC2F"/>
<path d="M73.0099 55.9769C73.811 56.778 74.8599 57.1774 75.9099 57.1774C76.9588 57.1774 78.0087 56.7769 78.8098 55.9769C80.412 54.3747 80.412 51.7781 78.8098 50.1759L75.7016 47.0677L78.8098 43.9595C80.412 42.3584 80.412 39.7607 78.8098 38.1596C77.2087 36.5575 74.6111 36.5575 73.0099 38.1596L69.9017 41.2679V52.8687L73.0099 55.9769Z" fill="url(#paint2_radial)"/>
</g>
<defs>
<radialGradient id="paint0_radial" cx="0" cy="0" r="1" gradientUnits="userSpaceOnUse" gradientTransform="translate(92.0005 70) rotate(90) scale(70 22.0988)">
<stop stop-color="#EBBA16"/>
<stop offset="0.5" stop-color="#EBBA16" stop-opacity="0.4"/>
</radialGradient>
<radialGradient id="paint1_radial" cx="0" cy="0" r="1" gradientUnits="userSpaceOnUse" gradientTransform="translate(82.4975 47.0675) rotate(90) scale(25.1915 12.5957)">
<stop stop-color="#E7E2E7" stop-opacity="0"/>
<stop offset="1" stop-color="#E2E2E7" stop-opacity="0.3"/>
</radialGradient>
<radialGradient id="paint2_radial" cx="0" cy="0" r="1" gradientUnits="userSpaceOnUse" gradientTransform="translate(74.9566 47.0677) rotate(90) scale(10.1097 5.05486)">
<stop stop-color="#EBBA16"/>
<stop offset="1" stop-color="#EBBA16" stop-opacity="0"/>
</radialGradient>
<clipPath id="clip0">
<rect width="140" height="140" fill="white"/>
</clipPath>
</defs>
</svg>
