<svg width="375" height="138" viewBox="0 0 375 138" fill="none" xmlns="http://www.w3.org/2000/svg">
<path d="M526 110.4L506.867 101.214C487.733 91.8562 449.467 73.7438 411.2 78.1856C372.933 82.8 334.667 110.4 296.4 115.014C258.133 119.456 219.867 101.344 181.6 91.9856C143.333 82.8 105.067 82.8 66.8 89.7C28.5334 96.6 -9.73334 110.4 -28.8666 117.3L-48 124.2V138H-28.8666C-9.73334 138 28.5334 138 66.8 138C105.067 138 143.333 138 181.6 138C219.867 138 258.133 138 296.4 138C334.667 138 372.933 138 411.2 138C449.467 138 487.733 138 506.867 138H526V110.4Z" fill="#50B345"/>
</svg>
