<svg width="375" height="320" viewBox="0 0 375 320" fill="none" xmlns="http://www.w3.org/2000/svg">
<path d="M-106 63.8636L-88.2 85.1182C-70.4 106.772 -34.8 148.683 0.800003 138.404C36.4 127.727 72 63.8636 107.6 53.1864C143.2 42.9084 178.8 84.8189 214.4 106.473C250 127.727 285.6 127.727 321.2 111.761C356.8 95.7954 392.4 63.8636 410.2 47.8977L428 31.9318V0H410.2C392.4 0 356.8 0 321.2 0C285.6 0 250 0 214.4 0C178.8 0 143.2 0 107.6 0C72 0 36.4 0 0.800003 0C-34.8 0 -70.4 0 -88.2 0H-106V63.8636Z" fill="#50B345"/>
</svg>
