<svg width="375" height="172" viewBox="0 0 375 172" fill="none" xmlns="http://www.w3.org/2000/svg">
<g clip-path="url(#clip0)">
<path d="M0 68.8L20.5 63.0488C41 57.5125 82 45.6875 123 57.3512C164 68.8 205 103.2 246 117.551C287 131.688 328 126.313 369 103.2C410 80.0875 451 40.3125 471.5 20.0487L492 0H471.5C451 0 410 0 369 0C328 0 287 0 246 0C205 0 164 0 123 0C82 0 41 0 20.5 0H0V68.8Z" fill="#50B345"/>
<path d="M381 117.2L360 122.951C339 128.487 297 140.312 255 128.649C213 117.2 171 82.8 129 68.4487C87 54.3125 45 59.6875 3 82.8C-39 105.912 -81 145.687 -102 165.951L-123 186H-102C-81 186 -39 186 3 186C45 186 87 186 129 186C171 186 213 186 255 186C297 186 339 186 360 186H381V117.2Z" fill="#50B345"/>
</g>
<defs>
<clipPath id="clip0">
<rect width="492" height="172" fill="white"/>
</clipPath>
</defs>
</svg>
