<svg width="375" height="36" viewBox="0 0 375 36" fill="none" xmlns="http://www.w3.org/2000/svg">
<path d="M-10 16.2193L3.07289 21.6173C16.1458 27.1167 42.2916 37.7606 68.4373 35.1503C94.5831 32.4387 120.729 16.2193 146.875 13.5077C173.02 10.8974 199.166 21.5413 225.312 27.0407C251.458 32.4387 277.604 32.4387 303.749 28.3838C329.895 24.329 356.041 16.2193 369.114 12.1645L382.187 8.10967V0H369.114C356.041 0 329.895 0 303.749 0C277.604 0 251.458 0 225.312 0C199.166 0 173.02 0 146.875 0C120.729 0 94.5831 0 68.4373 0C42.2916 0 16.1458 0 3.07289 0H-10V16.2193Z" fill="#50B345"/>
</svg>
