<svg width="1920" height="209" viewBox="0 0 1920 209" fill="none" xmlns="http://www.w3.org/2000/svg">
<path d="M1928 112.241L1887.25 117.541C1846.5 123.241 1765 133.241 1683.5 112.241C1602 91.2407 1520.5 37.2407 1439 42.9407C1357.5 48.2407 1276 112.241 1194.5 101.541C1113 91.2407 1031.5 5.24072 950 0.240723C868.5 -4.75928 787 69.2407 705.5 112.241C624 155.241 542.5 165.241 461 149.541C379.5 133.241 298 91.2407 216.5 69.5407C135 48.2407 53.5 48.2407 12.75 48.2407L-28 48.2407V208.241L12.75 208.241C53.5 208.241 135 208.241 216.5 208.241C298 208.241 379.5 208.241 461 208.241C542.5 208.241 624 208.241 705.5 208.241C787 208.241 868.5 208.241 950 208.241C1031.5 208.241 1113 208.241 1194.5 208.241C1276 208.241 1357.5 208.241 1439 208.241C1520.5 208.241 1602 208.241 1683.5 208.241C1765 208.241 1846.5 208.241 1887.25 208.241H1928V112.241Z" fill="#8FC742"/>
</svg>
