<svg width="495" height="495" viewBox="0 0 495 495" fill="none" xmlns="http://www.w3.org/2000/svg">
<path d="M303.67 199.688C303.67 199.688 411.726 135.635 480.332 226.146C480.332 226.146 498.122 246.72 484.447 266.42C470.99 285.786 440.951 281.671 425.997 261.14C412.506 242.623 379.998 219.115 303.67 199.688Z" fill="#88C057"/>
<path d="M303.668 199.685C303.668 199.685 369.384 93.2919 284.888 30.7012C284.888 30.7012 257.003 5.63511 231.814 14.5566C208.385 22.8478 207.772 55.5133 229.327 67.8669C252.949 81.4111 285.308 115.241 303.668 199.685Z" fill="#88C057"/>
<path d="M478.061 231.715C478.061 231.715 478.648 232.468 479.418 233.51C481.668 231.496 483.849 229.325 485.827 226.786C504.073 203.409 489.452 185.321 489.452 185.321C435.292 103.846 309.235 192.387 309.235 192.387C315.303 192.807 320.976 193.35 326.466 193.928C362.511 180.777 429.96 168.257 478.061 231.715Z" fill="#88C057"/>
<path d="M284.902 30.7022C350.084 78.9782 325.885 153.292 311.413 184.758C311.439 185.467 311.492 186.107 311.518 186.816C311.518 186.816 401.477 62.1771 325.132 13.1481C325.132 13.1481 300.801 -7.66295 272.61 6.66927C267.768 9.12947 263.592 12.3164 260.107 15.9147C274.212 21.1153 284.902 30.7022 284.902 30.7022Z" fill="#A4E869"/>
<path d="M441.773 53.6763C409.843 32.9879 369.315 64.2263 369.315 64.2263C362.591 72.2811 356.489 80.9487 350.859 89.8527C345.274 130.556 318.754 174.55 305.569 194.337C304.79 197.086 304.133 199.494 303.678 201.227C318.956 190.966 363.458 163.204 407.199 156.016C418.055 148.819 428.404 140.913 437.413 132.333C485.698 86.3594 441.773 53.6763 441.773 53.6763Z" fill="#659C35"/>
<path d="M303.67 199.688C303.67 199.688 411.726 135.635 480.332 226.146C480.332 226.146 498.122 246.72 484.447 266.42C470.99 285.786 440.951 281.671 425.997 261.14C412.506 242.623 379.998 219.115 303.67 199.688Z" fill="#A4E869"/>
<path d="M309.717 189.989C307.257 194.778 305.585 197.492 305.585 197.492C305.585 197.492 309.682 195.076 316.722 191.863C314.436 191.232 312.134 190.611 309.717 189.989Z" fill="#F2681C"/>
<path d="M366.042 247.565C369.728 237.304 369.5 227.13 367.198 217.543C350.747 210.635 330.548 203.841 305.587 197.494C299.538 169.679 291.964 147.449 283.691 129.536C272.283 125.57 259.807 124.16 247.182 128.696C207.564 142.932 33.3541 393.583 0.776051 480.978C-2.28826 489.199 4.1643 495.643 12.3767 492.578C99.7708 460 351.806 287.173 366.042 247.565Z" fill="#ED8F20"/>
<path d="M72.1036 410.243C66.2026 407.424 60.4679 403.983 55.0572 400.017C51.1524 397.145 45.6805 398.003 42.8263 401.899C39.9721 405.795 40.8126 411.276 44.7086 414.13C50.9948 418.744 57.675 422.754 64.5566 426.037C65.7736 426.615 67.0606 426.895 68.3301 426.895C71.5958 426.895 74.7301 425.057 76.236 421.914C78.311 417.554 76.4636 412.318 72.1036 410.243Z" fill="#DD7017"/>
<path d="M342.86 243.602C324.947 236.773 308.321 224.498 293.463 207.119C290.32 203.442 284.796 203.013 281.118 206.156C277.441 209.299 277.012 214.824 280.155 218.501C296.939 238.13 315.938 252.086 336.626 259.974C337.651 260.359 338.701 260.552 339.743 260.552C343.271 260.552 346.59 258.398 347.929 254.905C349.645 250.387 347.378 245.327 342.86 243.602Z" fill="#DD7017"/>
<path d="M198.928 174.649C202.333 175.534 205.065 178.397 205.476 182.126C207.044 196.415 214.424 214.932 227.408 224.081C231.357 226.865 232.302 232.329 229.509 236.286C227.811 238.702 225.097 239.989 222.348 239.989C220.605 239.989 218.846 239.473 217.305 238.387C199.786 226.034 191.074 203.83 188.553 187.196" fill="#DD7017"/>
<path d="M217.305 238.387C218.837 239.473 220.597 239.989 222.348 239.989C225.097 239.989 227.811 238.702 229.509 236.286C232.294 232.329 231.357 226.874 227.408 224.081C214.433 214.923 207.044 196.406 205.476 182.126C205.065 178.405 202.333 175.534 198.928 174.649C195.557 178.651 192.107 182.8 188.553 187.187C191.074 203.83 199.786 226.034 217.305 238.387Z" fill="#DD7017"/>
<path d="M265.7 337.757C249.153 335.078 227.449 326.358 215.288 309.119C212.504 305.17 213.45 299.707 217.398 296.914C221.338 294.13 226.81 295.076 229.603 299.024C238.752 311.991 257.269 319.389 271.558 320.956C275.392 321.376 278.264 324.239 279.052 327.802" fill="#DD7017"/>
<path d="M271.564 320.959C257.267 319.392 238.75 312.003 229.609 299.028C226.825 295.079 221.344 294.125 217.404 296.917C213.447 299.702 212.502 305.165 215.294 309.122C227.455 326.361 249.159 335.081 265.707 337.76C270.251 334.407 274.707 331.098 279.058 327.815C278.27 324.242 275.39 321.379 271.564 320.959Z" fill="#DD7017"/>
<path d="M129.184 266.246C132.677 267.069 135.488 269.958 135.908 273.74C136.889 282.714 141.468 294.306 149.47 299.962C153.418 302.746 154.364 308.209 151.571 312.166C149.864 314.583 147.159 315.87 144.409 315.87C142.667 315.87 140.907 315.353 139.366 314.268C127.74 306.064 121.506 291.854 119.238 280.429" fill="#DD7017"/>
<path d="M139.374 314.268C140.906 315.353 142.666 315.87 144.417 315.87C147.166 315.87 149.872 314.583 151.579 312.166C154.363 308.218 153.426 302.755 149.478 299.962C141.467 294.306 136.897 282.723 135.916 273.74C135.504 269.949 132.694 267.06 129.192 266.246C125.874 270.93 122.564 275.657 119.246 280.429C121.514 291.854 127.747 306.064 139.374 314.268Z" fill="#DD7017"/>
<path d="M157.799 411.904C145.918 410.355 129.397 404.13 120.283 391.198C117.499 387.241 118.436 381.786 122.385 378.994C126.342 376.192 131.805 377.155 134.589 381.095C140.245 389.106 151.828 393.676 160.802 394.657C165.609 395.182 169.076 399.507 168.551 404.314C168.524 404.585 168.375 404.813 168.323 405.075" fill="#DD7017"/>
<path d="M160.806 394.666C151.832 393.686 140.24 389.107 134.593 381.105C131.809 377.156 126.354 376.202 122.388 379.003C118.44 381.787 117.494 387.251 120.287 391.208C129.41 404.139 145.922 410.364 157.803 411.914C161.305 409.664 164.816 407.379 168.327 405.094C168.379 404.831 168.528 404.603 168.554 404.332C169.088 399.525 165.613 395.192 160.806 394.666Z" fill="#DD7017"/>
</svg>
