<svg width="508" height="508" viewBox="0 0 508 508" fill="none" xmlns="http://www.w3.org/2000/svg">
<path d="M21.8965 96.3447V189.116V259.421V508H65.6896H494.862V189.116V96.3447H21.8965Z" fill="#F0785A"/>
<path d="M284.654 254H39.4131V455.448H284.654V254Z" fill="#B35A5B"/>
<path d="M267.138 271.517H56.9307V437.931H267.138V271.517Z" fill="#B0D3F0"/>
<path d="M135.757 96.3448H16.4474C14.792 96.3448 13.5921 94.7595 14.0476 93.1654L49.6251 15.8794C54.0745 6.2011 63.7527 0 74.412 0H153.275L135.757 96.3448Z" fill="#ED7161"/>
<path d="M381 96.3448H258.379V0H363.482L381 96.3448Z" fill="#ED7161"/>
<path d="M197.068 218.965C163.207 218.965 135.758 191.516 135.758 157.655V96.3447H258.378V157.655C258.378 191.516 230.929 218.965 197.068 218.965Z" fill="#F0C419"/>
<path d="M442.31 218.965C408.45 218.965 381 191.516 381 157.655V96.3447H502.684C503.2 96.3447 503.621 96.7651 503.621 97.2819V157.655C503.621 191.516 476.171 218.965 442.31 218.965Z" fill="#F0C419"/>
<path d="M258.378 96.3448H135.758L153.275 0H258.378V96.3448Z" fill="#F3D55B"/>
<path d="M500.511 96.3448H381L363.482 0H442.345C453.004 0 462.683 6.2011 467.141 15.8881L502.771 93.3581C503.191 94.8559 502.07 96.3448 500.511 96.3448Z" fill="#F3D55B"/>
<path d="M74.448 218.965C40.5872 218.965 13.1377 191.516 13.1377 157.655V98.8147C13.1377 97.4483 14.2413 96.3447 15.6076 96.3447H135.758V157.655C135.758 191.516 108.309 218.965 74.448 218.965Z" fill="#D36259"/>
<path d="M319.689 218.965C285.828 218.965 258.379 191.516 258.379 157.655V96.3447H381V157.655C381 191.516 353.55 218.965 319.689 218.965Z" fill="#D36259"/>
<path d="M459.827 254H319.689V508H459.827V254Z" fill="#B35A5B"/>
<path d="M442.31 271.517H337.206V490.483H442.31V271.517Z" fill="#B0D3F0"/>
<path d="M424.793 411.655C419.949 411.655 416.034 407.74 416.034 402.897V376.621C416.034 371.777 419.949 367.862 424.793 367.862C429.636 367.862 433.551 371.777 433.551 376.621V402.897C433.551 407.74 429.636 411.655 424.793 411.655Z" fill="white"/>
<path d="M153.277 332.829C155.52 332.829 157.762 331.971 159.47 330.263L194.504 295.229C197.929 291.804 197.929 286.268 194.504 282.844C191.08 279.419 185.544 279.419 182.12 282.844L147.085 317.878C143.66 321.303 143.66 326.838 147.085 330.263C148.793 331.971 151.035 332.829 153.277 332.829Z" fill="white"/>
<path d="M153.277 376.623C155.52 376.623 157.762 375.764 159.47 374.056L176.987 356.539C180.412 353.114 180.412 347.579 176.987 344.154C173.562 340.73 168.027 340.73 164.602 344.154L147.085 361.672C143.66 365.096 143.66 370.632 147.085 374.056C148.793 375.764 151.035 376.623 153.277 376.623Z" fill="white"/>
<path d="M182.092 326.61C180.506 328.266 179.552 330.552 179.552 332.829C179.552 335.106 180.506 337.383 182.092 338.96C183.747 340.615 185.937 341.587 188.31 341.587C190.588 341.587 192.865 340.624 194.529 339.047C196.106 337.383 197.069 335.106 197.069 332.829C197.069 330.552 196.106 328.266 194.529 326.61C191.288 323.37 185.332 323.37 182.092 326.61Z" fill="white"/>
<path d="M199.637 321.504C201.345 323.212 203.587 324.071 205.829 324.071C208.071 324.071 210.314 323.212 212.022 321.504L238.297 295.229C241.722 291.804 241.722 286.268 238.297 282.844C234.873 279.419 229.337 279.419 225.913 282.844L199.637 309.12C196.212 312.544 196.212 318.08 199.637 321.504Z" fill="white"/>
<path d="M225.913 326.637L147.085 405.464C143.66 408.889 143.66 414.424 147.085 417.849C148.793 419.557 151.035 420.415 153.277 420.415C155.52 420.415 157.762 419.557 159.47 417.849L238.297 339.022C241.722 335.597 241.722 330.061 238.297 326.637C234.873 323.212 229.337 323.212 225.913 326.637Z" fill="white"/>
<path d="M255.839 309.093C252.598 305.852 246.642 305.852 243.401 309.093C241.816 310.749 240.861 313.034 240.861 315.312C240.861 317.589 241.816 319.866 243.401 321.53C245.057 323.107 247.343 324.07 249.62 324.07C251.897 324.07 254.174 323.107 255.839 321.53C257.415 319.866 258.379 317.589 258.379 315.312C258.379 313.034 257.415 310.749 255.839 309.093Z" fill="white"/>
<path d="M65.6906 508H13.1388L5.11594 459.871C4.73056 457.559 6.51732 455.448 8.86463 455.448H74.4492L65.6906 508Z" fill="#CB8252"/>
<path d="M48.1715 359.104H30.6543V455.448H48.1715V359.104Z" fill="#7F6E5D"/>
<path d="M76.0943 321.269C78.7569 314.542 80.6575 307.036 79.2211 299.863C78.5992 296.754 77.1803 293.767 75.2272 291.411C71.9339 287.426 70.4975 281.698 71.6274 276.425C72.6959 271.432 72.0565 265.827 69.7355 261.351C65.5051 253.197 57.0881 248.634 48.7236 247.443C42.575 246.567 35.7871 247.504 31.2326 252.199L25.8198 256.876C19.6712 259.775 14.9591 266.195 13.6103 273.491C12.8833 277.45 13.1461 281.601 14.2847 285.438C15.9839 291.157 14.5737 297.341 11.3243 302.149C4.00207 312.975 2.06641 328.486 7.46172 340.766C8.1449 342.325 9.02952 343.866 10.063 345.259C13.6015 350.015 14.9328 356.321 13.4526 362.286C13.111 363.652 12.8833 365.053 12.7519 366.446C12.1739 372.814 13.4701 379.19 14.7839 385.426C16.1503 391.907 17.8319 398.905 22.5616 402.969C28.9729 408.479 38.257 406.342 45.5968 402.558C55.967 397.206 65.5664 388.395 69.2275 376.308C71.3646 369.258 70.8566 361.077 67.9925 354.455C65.1022 347.764 65.1022 339.82 69.2888 334.048C72.0828 330.203 74.3163 325.771 76.0943 321.269Z" fill="#24AE5F"/>
</svg>
