<svg width="453" height="452" viewBox="0 0 453 452" fill="none" xmlns="http://www.w3.org/2000/svg">
<path d="M354.739 73.9762C332.282 59.6148 290.101 39.6032 249.578 58.0929C245.677 59.8772 241.233 57.0696 241.233 52.7839V15.6209C241.242 7.03202 235.395 0 228.251 0H208.765C201.621 0 195.774 7.03202 195.774 15.6209V54.988C195.774 58.7052 192.4 61.5215 188.744 60.7693C172.291 57.3845 129.567 52.1192 88.7107 76.4689C83.1182 79.8012 86.3615 88.5475 92.7779 87.3755C111.799 83.9032 136.834 81.5155 153.752 88.1802C158.187 89.9207 158.827 95.9731 154.839 98.5795C142.821 106.407 120.653 124.407 106.128 157.503C103.656 163.136 110.598 168.183 115.358 164.273C133.915 149.019 164.446 128.352 190.34 131.684C193.39 132.078 195.704 134.562 195.66 137.632C195.397 154.967 195.617 213.864 209.966 236.159C212.227 239.675 217.294 239.85 219.757 236.465C228.9 223.931 248.719 190.696 247.904 138.795C247.851 135.384 250.595 132.611 254.013 132.725C267.074 133.145 297.912 136.827 322.368 160.661C326.374 164.57 333.009 161.194 332.308 155.649C330.388 140.474 322.017 117.524 291.714 99.7253C287.112 97.0227 287.893 90.1481 293.073 88.8799C303.539 86.3172 321.579 83.877 351.312 84.8566C357.352 85.0403 359.815 77.2211 354.739 73.9762Z" fill="#88C057"/>
<path d="M361.562 87.3727C360.747 86.8042 359.8 86.4456 358.81 86.3231C355.303 85.8946 351.788 85.4922 348.282 85.0199C347.029 84.8975 345.766 84.8013 344.522 84.6788C318.978 84.259 302.946 86.4806 293.278 88.8246C288.027 90.1015 287.08 96.9674 291.744 99.705C322.046 117.504 330.409 140.454 332.329 155.62C333.03 161.165 326.394 164.541 322.388 160.632C297.932 136.807 267.095 133.125 254.034 132.696C250.615 132.582 247.863 135.355 247.924 138.766C248.731 190.666 228.92 223.902 219.778 236.436C217.306 239.821 212.248 239.646 209.986 236.13C195.637 213.835 195.418 154.938 195.681 137.603C195.725 134.541 193.411 132.049 190.36 131.655C164.466 128.314 133.936 148.99 115.379 164.244C110.619 168.153 103.677 163.107 106.149 157.474C120.656 124.422 142.789 106.431 154.815 98.5854C158.821 95.9703 158.155 89.8916 153.693 88.1773C150.441 86.9266 146.891 85.9995 143.148 85.3435C142.482 85.2211 141.772 85.2123 141.097 85.3086C119.84 88.1948 98.9607 92.2269 78.6945 97.6496C77.8004 97.8857 76.9677 98.3143 76.2577 98.9091C31.5265 136.046 3.44141 189.512 3.44141 248.961C3.44141 361.097 103.308 451.997 226.492 451.997C349.676 451.997 449.543 361.097 449.543 248.961C449.552 183.04 415.032 124.457 361.562 87.3727Z" fill="#D13834"/>
<path d="M50.7581 302.934C47.7603 302.934 44.8413 301.403 43.2109 298.648C36.6542 287.602 32.359 275.4 30.4393 262.386C29.7381 257.602 33.0515 253.159 37.8375 252.459C42.7112 251.707 47.0853 255.065 47.7866 259.841C49.3468 270.45 52.9846 280.788 58.2966 289.736C60.7597 293.89 59.3923 299.26 55.2198 301.718C53.8173 302.54 52.2746 302.934 50.7581 302.934Z" fill="#ED7161"/>
<path d="M40.2116 233.335C40.01 233.335 39.7997 233.327 39.598 233.309C34.7594 232.977 31.1217 228.796 31.4548 223.985C32.2787 212.379 34.663 201.105 38.5637 190.452C40.2204 185.913 45.2344 183.604 49.81 185.239C54.3594 186.892 56.6911 191.922 55.0343 196.461C51.6946 205.566 49.6522 215.23 48.951 225.192C48.6267 229.81 44.7785 233.335 40.2116 233.335Z" fill="#ED7161"/>
</svg>
