<svg width="1920" height="187" viewBox="0 0 1920 187" fill="none" xmlns="http://www.w3.org/2000/svg">
<path d="M-1 160L63.0333 133.3C127.067 107 255.133 53 383.2 58.7C511.267 64 639.333 128 767.4 160C895.467 192 1023.53 192 1151.6 176C1279.67 160 1407.73 128 1535.8 106.7C1663.87 85 1791.93 75 1855.97 69.3L1920 64V0H1855.97C1791.93 0 1663.87 0 1535.8 0C1407.73 0 1279.67 0 1151.6 0C1023.53 0 895.467 0 767.4 0C639.333 0 511.267 0 383.2 0C255.133 0 127.067 0 63.0333 0H-1V160Z" fill="#8FC742"/>
</svg>
