<svg width="375" height="24" viewBox="0 0 375 24" fill="none" xmlns="http://www.w3.org/2000/svg">
<path d="M0 10.9481L12.7333 14.5917C25.4667 18.3038 50.9333 25.4884 76.4 23.7265C101.867 21.8961 127.333 10.9481 152.8 9.11767C178.267 7.35572 203.733 14.5404 229.2 18.2525C254.667 21.8961 280.133 21.8961 305.6 19.1591C331.067 16.4221 356.533 10.9481 369.267 8.21104L382 5.47403V0H369.267C356.533 0 331.067 0 305.6 0C280.133 0 254.667 0 229.2 0C203.733 0 178.267 0 152.8 0C127.333 0 101.867 0 76.4 0C50.9333 0 25.4667 0 12.7333 0H0V10.9481Z" fill="#50B345"/>
</svg>
