<svg width="27" height="28" viewBox="0 0 27 28" fill="none" xmlns="http://www.w3.org/2000/svg">
<g clip-path="url(#clip0)">
<path fill-rule="evenodd" clip-rule="evenodd" d="M23.2373 16.1524C24.133 17.0592 25.0783 17.9124 25.8815 18.9106C26.2364 19.3542 26.5723 19.812 26.8293 20.3268C27.1935 21.0587 26.8637 21.864 26.2309 21.9077L22.2975 21.9059C21.283 21.9932 20.4736 21.5696 19.7931 20.8503C19.2486 20.275 18.7442 19.6628 18.2206 19.0681C18.0059 18.8251 17.7812 18.5964 17.5128 18.4156C16.9758 18.0542 16.5097 18.1648 16.2028 18.7456C15.8903 19.3363 15.8194 19.9904 15.7887 20.6487C15.7466 21.6093 15.4666 21.8618 14.5362 21.9058C12.5479 22.003 10.6608 21.691 8.90781 20.6508C7.36229 19.7338 6.16381 18.4392 5.12066 16.9737C3.08963 14.1198 1.53426 10.984 0.136359 7.76022C-0.178298 7.03391 0.0518178 6.64403 0.824577 6.63023C2.10778 6.60438 3.3908 6.60622 4.67551 6.62839C5.19704 6.6363 5.5423 6.94651 5.74368 7.45746C6.43793 9.22775 7.28742 10.912 8.35372 12.4732C8.63769 12.8888 8.92724 13.3045 9.33957 13.597C9.79572 13.9209 10.143 13.8136 10.3576 13.2866C10.4938 12.9525 10.5534 12.5926 10.5841 12.2347C10.6858 11.0036 10.6991 9.77448 10.5208 8.54762C10.4114 7.78193 9.99549 7.28626 9.25875 7.14136C8.88279 7.06749 8.93877 6.92241 9.1208 6.69987C9.43697 6.31606 9.73433 6.07715 10.3271 6.07715H14.7725C15.4723 6.22039 15.6277 6.54642 15.7235 7.27669L15.7274 12.3975C15.7197 12.6802 15.8635 13.5191 16.3545 13.7062C16.7475 13.8394 17.0066 13.5134 17.2424 13.255C18.3067 12.0835 19.0663 10.699 19.745 9.26547C20.0462 8.63511 20.3051 7.98046 20.5561 7.32637C20.742 6.84099 21.0338 6.60217 21.561 6.61275L25.8394 6.61671C25.9663 6.61671 26.0946 6.61864 26.2175 6.64044C26.9384 6.76786 27.136 7.08948 26.9133 7.81956C26.5625 8.96501 25.8799 9.91956 25.2124 10.8785C24.4989 11.9024 23.7358 12.8911 23.0283 13.921C22.3782 14.8615 22.4298 15.3356 23.2373 16.1524Z" fill="#1A1A1A"/>
</g>
<defs>
<clipPath id="clip0">
<rect width="27" height="28" fill="white"/>
</clipPath>
</defs>
</svg>
