<svg width="27" height="28" viewBox="0 0 27 28" fill="none" xmlns="http://www.w3.org/2000/svg">
<path d="M20.2489 0.00582587L16.7476 0C12.8141 0 10.2721 2.70466 10.2721 6.89084V10.068H6.75171C6.44751 10.068 6.20117 10.3237 6.20117 10.6392V15.2425C6.20117 15.558 6.44779 15.8134 6.75171 15.8134H10.2721V27.4291C10.2721 27.7445 10.5184 28 10.8226 28H15.4157C15.7199 28 15.9662 27.7442 15.9662 27.4291V15.8134H20.0823C20.3865 15.8134 20.6329 15.558 20.6329 15.2425L20.6346 10.6392C20.6346 10.4877 20.5764 10.3427 20.4733 10.2355C20.3702 10.1283 20.2298 10.068 20.0837 10.068H15.9662V7.37468C15.9662 6.08017 16.2637 5.42301 17.8897 5.42301L20.2483 5.42214C20.5523 5.42214 20.7986 5.16638 20.7986 4.8512V0.576761C20.7986 0.261873 20.5525 0.00640846 20.2489 0.00582587Z" fill="black"/>
</svg>
