<svg width="27" height="28" viewBox="0 0 27 28" fill="none" xmlns="http://www.w3.org/2000/svg">
<g clip-path="url(#clip0)">
<path d="M23.7039 3.3457H3.30168C1.48045 3.3457 0 4.88098 0 6.76966V21.2303C0 23.1189 1.48045 24.6542 3.30168 24.6542H23.6983C25.5196 24.6542 27 23.1189 27 21.2303V6.77546C27.0056 4.88678 25.5251 3.3457 23.7039 3.3457ZM25.4972 21.2303C25.4972 22.2557 24.6927 23.09 23.7039 23.09H3.30168C2.31285 23.09 1.50838 22.2557 1.50838 21.2303V6.77546C1.50838 5.75001 2.31285 4.91574 3.30168 4.91574H23.6983C24.6872 4.91574 25.4916 5.75001 25.4916 6.77546V21.2303H25.4972Z" fill="#1A1A1A"/>
<path d="M17.0279 13.8205L23.6312 7.67935C23.9385 7.38968 23.9664 6.89723 23.6871 6.57279C23.4078 6.25415 22.9329 6.22518 22.6201 6.51486L13.5139 14.9908L11.7374 13.3454C11.7318 13.3396 11.7262 13.3338 11.7262 13.328C11.6871 13.2875 11.648 13.2527 11.6033 13.2179L4.37427 6.50906C4.06142 6.21939 3.58656 6.24836 3.30723 6.57279C3.0279 6.89723 3.05583 7.38968 3.36868 7.67935L10.0502 13.8726L3.39661 20.3324C3.09494 20.6278 3.07818 21.1203 3.36309 21.4389C3.51393 21.6011 3.71505 21.688 3.91617 21.688C4.10052 21.688 4.28488 21.6185 4.43013 21.4795L11.1843 14.927L13.0167 16.6245C13.162 16.7578 13.3407 16.8215 13.5195 16.8215C13.6983 16.8215 13.8826 16.752 14.0223 16.6187L15.905 14.8691L22.6201 21.4853C22.7653 21.6301 22.9553 21.6996 23.1396 21.6996C23.3407 21.6996 23.5363 21.6185 23.6871 21.4563C23.972 21.1435 23.9609 20.6452 23.6592 20.3497L17.0279 13.8205Z" fill="#1A1A1A"/>
</g>
<defs>
<clipPath id="clip0">
<rect width="27" height="28" fill="white"/>
</clipPath>
</defs>
</svg>
