<svg width="27" height="28" viewBox="0 0 27 28" fill="none" xmlns="http://www.w3.org/2000/svg">
<path d="M18.5625 0H8.4375C3.77831 0 0 3.91825 0 8.75V19.25C0 24.0817 3.77831 28 8.4375 28H18.5625C23.2217 28 27 24.0817 27 19.25V8.75C27 3.91825 23.2217 0 18.5625 0ZM24.4688 19.25C24.4688 22.6275 21.8194 25.375 18.5625 25.375H8.4375C5.18062 25.375 2.53125 22.6275 2.53125 19.25V8.75C2.53125 5.3725 5.18062 2.625 8.4375 2.625H18.5625C21.8194 2.625 24.4688 5.3725 24.4688 8.75V19.25Z" fill="#1A1A1A"/>
<path d="M13.5 7C9.77231 7 6.75 10.1342 6.75 14C6.75 17.8658 9.77231 21 13.5 21C17.2277 21 20.25 17.8658 20.25 14C20.25 10.1342 17.2277 7 13.5 7ZM13.5 18.375C11.1746 18.375 9.28125 16.4115 9.28125 14C9.28125 11.5868 11.1746 9.625 13.5 9.625C15.8254 9.625 17.7188 11.5868 17.7188 14C17.7188 16.4115 15.8254 18.375 13.5 18.375Z" fill="#1A1A1A"/>
<path d="M20.7562 7.40773C21.253 7.40773 21.6557 6.99013 21.6557 6.47498C21.6557 5.95984 21.253 5.54224 20.7562 5.54224C20.2595 5.54224 19.8568 5.95984 19.8568 6.47498C19.8568 6.99013 20.2595 7.40773 20.7562 7.40773Z" fill="#1A1A1A"/>
</svg>
