<svg width="1920" height="105" viewBox="0 0 1920 105" fill="none" xmlns="http://www.w3.org/2000/svg">
<path d="M0 89.5088L65.7333 74.6569C131.467 60.0275 262.933 29.99 394.4 33.1607C525.867 36.1088 657.333 71.7088 788.8 89.5088C920.267 107.309 1051.73 107.309 1183.2 98.4088C1314.67 89.5088 1446.13 71.7088 1577.6 59.8607C1709.07 47.79 1840.53 42.2275 1906.27 39.0569L1972 36.1088V0.508789H1906.27C1840.53 0.508789 1709.07 0.508789 1577.6 0.508789C1446.13 0.508789 1314.67 0.508789 1183.2 0.508789C1051.73 0.508789 920.267 0.508789 788.8 0.508789C657.333 0.508789 525.867 0.508789 394.4 0.508789C262.933 0.508789 131.467 0.508789 65.7333 0.508789H0V89.5088Z" fill="#8FC742"/>
</svg>
